<svg width="18" height="18" viewBox="0 0 18 18" fill="none" xmlns="http://www.w3.org/2000/svg">
<g id="star-fill">
<path id="Vector" fill-rule="evenodd" clip-rule="evenodd" d="M8.9993 0.28125C9.15682 0.281149 9.31121 0.325141 9.44502 0.408248C9.57882 0.491355 9.6867 0.610259 9.75643 0.7515L11.8737 5.04338L16.6099 5.73187C16.7657 5.7545 16.912 5.82024 17.0324 5.92169C17.1527 6.02312 17.2423 6.1562 17.291 6.30588C17.3397 6.45558 17.3456 6.6159 17.3079 6.76873C17.2702 6.92156 17.1905 7.06081 17.0779 7.17075L13.6512 10.512L14.4601 15.228C14.4867 15.3831 14.4695 15.5427 14.4102 15.6886C14.3509 15.8345 14.252 15.9608 14.1247 16.0534C13.9973 16.146 13.8466 16.2011 13.6895 16.2125C13.5325 16.2239 13.3754 16.1911 13.2361 16.1179L8.9993 13.8904L4.76255 16.1179C4.62326 16.191 4.4663 16.2237 4.30939 16.2124C4.15248 16.201 4.00187 16.146 3.87457 16.0536C3.74726 15.9612 3.64834 15.8349 3.58897 15.6892C3.52959 15.5436 3.51213 15.3843 3.53855 15.2291L4.34855 10.5109L0.919551 7.17075C0.806562 7.06086 0.726612 6.92153 0.688758 6.76853C0.650905 6.61553 0.656662 6.45499 0.705378 6.3051C0.754094 6.1552 0.843819 6.02194 0.964388 5.92044C1.08496 5.81893 1.23155 5.75322 1.38755 5.73075L6.1238 5.04338L8.24218 0.7515C8.31191 0.610259 8.41977 0.491355 8.55358 0.408248C8.68739 0.325141 8.84178 0.281149 8.9993 0.28125Z" fill="#FFD84C"/>
</g>
</svg>
